<svg xmlns="http://www.w3.org/2000/svg" width="21.723" height="13.527" viewBox="0 0 21.723 13.527">
  <g id="Group_2075" data-name="Group 2075" transform="translate(-362.538 -189.033)">
    <path id="Path_1360" data-name="Path 1360" d="M363.286,201.85c2.418,0,3.48-3.306,4.508-6.5.845-2.627,1.8-5.6,3.274-5.6s2.433,2.977,3.277,5.6c1.028,3.2,2.092,6.5,4.511,6.5s3.483-3.306,4.512-6.5" fill="none" stroke="#fff" stroke-linecap="round" stroke-miterlimit="10" stroke-width="1.42"/>
    <path id="Path_1361" data-name="Path 1361" d="M363.431,195.347c.845-2.627,1.8-5.6,3.274-5.6s2.433,2.977,3.277,5.6c1.028,3.2,2.091,6.5,4.511,6.5s3.483-3.306,4.512-6.5c.844-2.626,1.8-5.6,3.276-5.6" fill="none" stroke="#fff" stroke-linecap="round" stroke-miterlimit="10" stroke-width="1.42"/>
  </g>
</svg>
