<svg height="16.613" viewBox="0 0 23.803 16.613" width="23.803" xmlns="http://www.w3.org/2000/svg">
	<path d="M376.716,164.885a8.253,8.253,0,0,0-3.6.806,8.162,8.162,0,0,0-3.6-.806,8.307,8.307,0,1,0,3.6,15.807,8.154,8.154,0,0,0,3.6.806,8.307,8.307,0,0,0,0-16.613Zm-7.191,14.505a6.2,6.2,0,1,1,0-12.4,5.689,5.689,0,0,1,1.457.186,8.327,8.327,0,0,0-2.572,6.012,8.235,8.235,0,0,0,2.6,6.013A6.114,6.114,0,0,1,369.525,179.39Zm7.191,0a5.689,5.689,0,0,1-1.457-.186,8.356,8.356,0,0,0,2.6-6.013,8.235,8.235,0,0,0-2.6-6.012,5.689,5.689,0,0,1,1.457-.186,6.2,6.2,0,1,1,0,12.4Z" data-name="Path 1359"
	      fill="#b85095"
	      id="Path_1359" transform="translate(-361.219 -164.885)"/>
</svg>
