<svg height="16.092" viewBox="0 0 24.771 16.092" width="24.771" xmlns="http://www.w3.org/2000/svg">
	<g data-name="Group 1949" id="Group_1949" transform="translate(-363.846 -212.416)">
		<g data-name="Group 1946" id="Group_1946" transform="translate(364.679 212.416)">
			<path d="M387.058,214.687H365.71a1.136,1.136,0,0,1,0-2.271h21.349a1.136,1.136,0,0,1,0,2.271Z" data-name="Path 1372"
			      fill="#dfd73a"
			      id="Path_1372" transform="translate(-364.574 -212.416)"/>
		</g>
		<g data-name="Group 1947" id="Group_1947" transform="translate(364.679 226.236)">
			<path d="M387.058,226.761H365.71a1.136,1.136,0,0,1,0-2.272h21.349a1.136,1.136,0,0,1,0,2.272Z" data-name="Path 1373"
			      fill="#dfd73a"
			      id="Path_1373" transform="translate(-364.574 -224.489)"/>
		</g>
		<g data-name="Group 1948" id="Group_1948" transform="translate(363.846 216.403)">
			<path d="M364.928,219.944a2.276,2.276,0,0,1,1.053-.452c.586.039.462.9.536,1.422a3.853,3.853,0,0,0,1.512,2.722,3.919,3.919,0,0,0,3.626.752,5.564,5.564,0,0,0,2.611-3.115c.343-.782,1.425-5.04,2.9-3.389.4.444.555,1.144.934,1.628a3.382,3.382,0,0,0,1.509,1.161,3.555,3.555,0,0,0,3.479-1.01c1.521-1.321,2.677-2.368,4.829-2.3.94.029.939-1.431,0-1.461a6.689,6.689,0,0,0-4.335,1.344c-1.353,1.036-3.053,3.375-4.527,1.1-.7-1.075-1.034-2.38-2.592-2.3a3.24,3.24,0,0,0-2.658,2.342c-.586,1.445-.96,3.513-2.352,4.441a2.351,2.351,0,0,1-2.75-.516,3.031,3.031,0,0,1-.8-2.08c-.112-.939-.256-1.922-1.328-2.174a3.359,3.359,0,0,0-2.378.627c-.8.492-.065,1.756.737,1.26Z" data-name="Path 1374"
			      fill="#dfd73a"
			      id="Path_1374" transform="translate(-363.846 -215.899)"/>
		</g>
	</g>
</svg>
