<svg xmlns="http://www.w3.org/2000/svg" width="24.853" height="20.761" viewBox="0 0 24.853 20.761">
  <g id="Group_2072" data-name="Group 2072" transform="translate(-362.263 -254.596)">
    <path id="Path_1367" data-name="Path 1367" d="M365.743,259.249a.921.921,0,1,0-1.841,0v15.187a.921.921,0,1,0,1.841,0Z" fill="#fff" fill-rule="evenodd"/>
    <path id="Path_1368" data-name="Path 1368" d="M377.021,264.311a.921.921,0,0,0-1.841,0v3.222a.921.921,0,0,0,1.841,0Z" fill="#fff" fill-rule="evenodd"/>
    <path id="Path_1369" data-name="Path 1369" d="M373.261,261.09a.92.92,0,1,0-1.841,0v9.665a.92.92,0,0,0,1.841,0Z" fill="#fff" fill-rule="evenodd"/>
    <path id="Path_1370" data-name="Path 1370" d="M369.5,259.9a.921.921,0,0,0-1.841,0v12.324a.921.921,0,0,0,1.841,0Z" fill="#fff" fill-rule="evenodd"/>
    <path id="Path_1371" data-name="Path 1371" d="M363.728,256.492a14.553,14.553,0,0,1,7.27,1.221,11.6,11.6,0,0,1,3.065,2.04,13.414,13.414,0,0,0,3.548,2.364,16.336,16.336,0,0,0,8.2,1.382c.246-.021.425-.043.528-.059a.92.92,0,1,0-.282-1.819c-.063.01-.2.026-.4.044a14.567,14.567,0,0,1-7.27-1.22,11.562,11.562,0,0,1-3.064-2.041,13.443,13.443,0,0,0-3.549-2.364,16.334,16.334,0,0,0-8.2-1.382c-.246.021-.425.043-.528.059a.921.921,0,0,0,.283,1.82C363.388,256.527,363.525,256.51,363.728,256.492Z" fill="#fff" fill-rule="evenodd"/>
  </g>
</svg>
